<?xml version="1.0" encoding="UTF-8" standalone="no"?>
<!-- Created with Inkscape (http://www.inkscape.org/) -->

<svg
   xmlns:dc="http://purl.org/dc/elements/1.1/"
   xmlns:cc="http://creativecommons.org/ns#"
   xmlns:rdf="http://www.w3.org/1999/02/22-rdf-syntax-ns#"
   xmlns:svg="http://www.w3.org/2000/svg"
   xmlns="http://www.w3.org/2000/svg"
   xmlns:sodipodi="http://sodipodi.sourceforge.net/DTD/sodipodi-0.dtd"
   xmlns:inkscape="http://www.inkscape.org/namespaces/inkscape"
   width="800px"
   height="600px"
   id="svg3765"
   version="1.1"
   inkscape:version="0.48.3.1 r9886"
   sodipodi:docname="engrenage.svg"
   inkscape:export-filename="/home/pierre/sites/Leek Wars/site/image/engrenage.png"
   inkscape:export-xdpi="7.673945"
   inkscape:export-ydpi="7.673945">
  <sodipodi:namedview
     id="base"
     pagecolor="#ffffff"
     bordercolor="#666666"
     borderopacity="1.0"
     inkscape:pageopacity="0.0"
     inkscape:pageshadow="2"
     inkscape:zoom="0.84852814"
     inkscape:cx="459.47112"
     inkscape:cy="302.82326"
     inkscape:current-layer="layer1"
     inkscape:document-units="px"
     showgrid="false"
     inkscape:window-width="1366"
     inkscape:window-height="709"
     inkscape:window-x="0"
     inkscape:window-y="27"
     inkscape:window-maximized="1" />
  <defs
     id="defs3767" />
  <metadata
     id="metadata3770">
    <rdf:RDF>
      <cc:Work
         rdf:about="">
        <dc:format>image/svg+xml</dc:format>
        <dc:type
           rdf:resource="http://purl.org/dc/dcmitype/StillImage" />
        <dc:title></dc:title>
      </cc:Work>
    </rdf:RDF>
  </metadata>
  <g
     id="layer1"
     inkscape:label="Layer 1"
     inkscape:groupmode="layer">
    <g
       style="stroke:none"
       inkscape:label="Gear12"
       transform="translate(400.0,300.0)"
       id="g3778">
      <path
         style="stroke:none;fill:none"
         d="M39.597,-5.285L46.794,-6.246L47.527,-6.257L55.815,-3.544L55.815,3.544L47.527,6.257L46.794,6.246L39.597,5.285L36.934,15.221L43.648,17.988L44.288,18.345L50.109,24.838L46.565,30.976L38.031,29.182L37.402,28.806L31.649,24.376L24.376,31.649L28.806,37.402L29.182,38.031L30.976,46.565L24.838,50.109L18.345,44.288L17.988,43.648L15.221,36.934L5.285,39.597L6.246,46.794L6.257,47.527L3.544,55.815L-3.544,55.815L-6.257,47.527L-6.246,46.794L-5.285,39.597L-15.221,36.934L-17.988,43.648L-18.345,44.288L-24.838,50.109L-30.976,46.565L-29.182,38.031L-28.806,37.402L-24.376,31.649L-31.649,24.376L-37.402,28.806L-38.031,29.182L-46.565,30.976L-50.109,24.838L-44.288,18.345L-43.648,17.988L-36.934,15.221L-39.597,5.285L-46.794,6.246L-47.527,6.257L-55.815,3.544L-55.815,-3.544L-47.527,-6.257L-46.794,-6.246L-39.597,-5.285L-36.934,-15.221L-43.648,-17.988L-44.288,-18.345L-50.109,-24.838L-46.565,-30.976L-38.031,-29.182L-37.402,-28.806L-31.649,-24.376L-24.376,-31.649L-28.806,-37.402L-29.182,-38.031L-30.976,-46.565L-24.838,-50.109L-18.345,-44.288L-17.988,-43.648L-15.221,-36.934L-5.285,-39.597L-6.246,-46.794L-6.257,-47.527L-3.544,-55.815L3.544,-55.815L6.257,-47.527L6.246,-46.794L5.285,-39.597L15.221,-36.934L17.988,-43.648L18.345,-44.288L24.838,-50.109L30.976,-46.565L29.182,-38.031L28.806,-37.402L24.376,-31.649L31.649,-24.376L37.402,-28.806L38.031,-29.182L46.565,-30.976L50.109,-24.838L44.288,-18.345L43.648,-17.988L36.934,-15.221z"
         id="path3780" />
    </g>
    <g
       id="g4302"
       transform="matrix(7.3631324,0,0,7.3631324,384.69357,300.95482)"
       inkscape:label="Gear8"
       style="fill:#8c8c8c;fill-opacity:1;stroke:none">
      <path
         style="fill:#8c8c8c;fill-opacity:1;stroke:none"
         d="M 361.21875 7.75 L 338.78125 70.15625 L 339.09375 73.75 L 349.96875 127.90625 L 286.90625 154.03125 L 256.28125 108.03125 L 253.96875 105.3125 L 193.96875 77.03125 L 160.78125 110.25 L 189.03125 170.21875 L 191.78125 172.5625 L 237.78125 203.15625 L 211.65625 266.21875 L 157.5 255.34375 L 153.90625 255.03125 L 91.5 277.46875 L 91.5 324.4375 L 153.90625 346.875 L 157.5 346.5625 L 211.65625 335.6875 L 237.78125 398.75 L 191.78125 429.34375 L 189.03125 431.6875 L 160.78125 491.6875 L 193.96875 524.875 L 253.96875 496.59375 L 256.28125 493.875 L 286.90625 447.875 L 349.96875 474 L 339.09375 528.15625 L 338.78125 531.75 L 361.21875 594.15625 L 408.1875 594.15625 L 430.59375 531.75 L 430.3125 528.15625 L 419.4375 474 L 482.46875 447.875 L 513.09375 493.875 L 515.4375 496.59375 L 575.40625 524.875 L 608.625 491.6875 L 580.34375 431.6875 L 577.59375 429.34375 L 531.625 398.75 L 557.71875 335.6875 L 611.90625 346.5625 L 615.46875 346.875 L 677.90625 324.4375 L 677.90625 277.46875 L 615.46875 255.03125 L 611.90625 255.34375 L 557.71875 266.21875 L 531.625 203.15625 L 577.59375 172.5625 L 580.34375 170.21875 L 608.625 110.25 L 575.40625 77.03125 L 515.4375 105.3125 L 513.09375 108.03125 L 482.46875 154.03125 L 419.4375 127.90625 L 430.3125 73.75 L 430.59375 70.15625 L 408.1875 7.75 L 361.21875 7.75 z M 384.6875 182.1875 C 450.28806 182.1875 503.46875 235.36819 503.46875 300.96875 C 503.46875 366.56931 450.28806 419.75 384.6875 419.75 C 319.08694 419.75 265.90625 366.56931 265.90625 300.96875 C 265.90625 235.36819 319.08694 182.1875 384.6875 182.1875 z "
         transform="matrix(0.13581176,0,0,0.13581176,-52.245912,-40.873205)"
         id="path4304" />
    </g>
  </g>
</svg>
