<svg xmlns="http://www.w3.org/2000/svg" viewBox="0 0 88.155 70.743"><path d="M7.163 68.243C-.32 56.673-2.05 42.19 2.495 29.173c2.252-6.447 5.139-10.922 10.518-16.303C19.71 6.17 26.267 2.58 35.336.648c4.053-.864 13.42-.864 17.473 0a46.54 46.54 0 0115.775 6.536c2.966 1.93 10.1 8.964 11.925 11.754 7.364 11.266 9.476 24.203 6.044 37.029-1.612 6.022-6.358 14.776-8.011 14.776-1.021 0-5.189-3.045-5.189-3.79 0-.301.57-1.406 1.268-2.456 2.75-4.143 5.487-11.352 6.014-15.84l.221-1.882-4.721-.099-4.722-.099v-4.939l4.674-.098 4.675-.098-.008-.96c-.013-1.559-1.267-6.765-2.27-9.427-1.241-3.291-3.042-6.537-5.239-9.444l-1.805-2.388-3.02 3.006c-1.66 1.653-3.18 3.005-3.378 3.005-.45 0-3.684-3.256-3.684-3.709 0-.183 1.31-1.653 2.91-3.265l2.911-2.933-.882-.705c-1.805-1.442-6.262-3.899-8.973-4.946-2.897-1.12-8.122-2.412-9.802-2.426l-.96-.008-.098 4.675-.099 4.674h-5.291l-.099-4.674c-.113-5.395.299-5.016-4.333-3.991-5.29 1.17-11.565 4.04-14.971 6.848l-1.058.873 2.734 2.813c1.503 1.547 2.734 3.023 2.734 3.28 0 .652-2.851 3.494-3.505 3.494-.295 0-1.782-1.23-3.304-2.734l-2.767-2.734-1.245 1.41c-1.752 1.988-4.171 6.21-5.443 9.503-1.12 2.897-2.412 8.123-2.426 9.802l-.008.96 4.498.098 4.498.099v4.939l-4.545.099-4.545.1.22 1.88c.528 4.489 3.265 11.697 6.015 15.84.697 1.05 1.267 2.171 1.267 2.491 0 .78-4.089 3.755-5.16 3.755-.667 0-1.2-.54-2.468-2.5zm34.438-16.174c-2.826-.86-5.694-3.599-6.365-6.077-1.254-4.638 1.202-9.522 5.573-11.082 1.744-.623 4.594-.625 6.35-.006l1.41.497 7.541-3.33c17.903-7.91 17.949-7.926 17.949-6.52 0 .654-1.694 2.094-15.963 13.575-4.923 3.96-5.204 4.253-5.204 5.427 0 4.783-6.359 9.016-11.291 7.515z"/></svg>