<svg xmlns="http://www.w3.org/2000/svg" viewBox="0 0 53.622 87.956"><path d="M38.954 86.205a59.962 59.962 0 00-2.418-3.29c-1.396-1.74-1.404-1.664.681-6.313l.99-2.207 1.564.76c1.319.64 1.596.958 1.774 2.03.38 2.295.212 4.4-.604 7.609l-.804 3.162zm-28.777-.19c-.63-1.397-.63-1.474.002-2.647.485-.9.883-1.206 1.565-1.202 1.175.007 1.484.24 2.46 1.846.59.97.742 1.603.571 2.38-.222 1.015-.312 1.06-2.091 1.06-1.833 0-1.868-.02-2.507-1.438zm38.634-3.708c-.033-4.558-1.832-19.675-2.967-24.924-.073-.336.352-1.28.945-2.098.592-.818 1.425-2.344 1.852-3.392l.775-1.905.921 1.534a25.626 25.626 0 002.103 2.907l1.182 1.374-.63 2.86c-.346 1.573-.633 3.474-.638 4.224-.009 1.462-3.088 20.001-3.368 20.282-.092.092-.171-.296-.175-.862zM.96 80.971L0 79.01l.908-2.218.907-2.217 1.591-.106 1.59-.106.745 2.203c.409 1.211.744 2.866.744 3.677v1.475l-1.147-.245c-.907-.193-1.383-.066-2.28.607l-1.135.85zm21.264-1.327c-.29-.414-.894-.79-1.343-.837a21.87 21.87 0 01-1.06-.13c-.136-.024-.453-.47-.706-.99-.253-.52-1.175-1.316-2.048-1.769-2.184-1.134-2.822-2-2.822-3.83 0-.84-.132-1.61-.294-1.71-.162-.1-.224-.658-.138-1.242.102-.694-.052-1.268-.444-1.66-.432-.432-.534-.902-.368-1.688.643-3.034.614-3.911-.152-4.604-.713-.645-.799-.649-1.76-.081-1.611.952-2.375.775-2.848-.658-.386-1.17-.276-4.661.23-7.299.152-.795.026-1.028-.703-1.306-.489-.185-1.068-.673-1.287-1.083-.313-.585-.504-.658-.888-.339-1.692 1.404-1.968-2.652-.54-7.945 1.053-3.904.738-8.255-.71-9.81-.375-.401-.682-1.137-.683-1.634 0-.497-.328-1.44-.727-2.094-1.254-2.056-1.264-4.113-.034-6.698.846-1.779 1-2.425.736-3.116-.182-.48-.241-1.018-.132-1.196.11-.177 1.228-.323 2.483-.323 1.705 0 2.335-.134 2.487-.529.112-.291.4-.53.64-.53 1.018 0 5.132-5.868 5.132-7.321 0-1.309.394-1.822 2.027-2.637.882-.44 2.168-1.317 2.856-1.947.689-.631 1.44-1.147 1.67-1.147.45 0 1.997-1.9 2.37-2.91.311-.847.957-.775 2.364.263 1.66 1.224 1.807 1.543 1.57 3.39-.196 1.519-.118 1.729 1.207 3.26.779.9 1.844 2.59 2.367 3.756.822 1.83 1.129 2.173 2.25 2.508.714.214 2.05 1.061 2.971 1.883 1.696 1.513 4.438 2.656 6.425 2.678.565.006 1.298.217 1.63.469.638.485.543 2.143-.432 7.457-.213 1.164-.387 2.91-.385 3.88 0 .97-.228 2.116-.51 2.546-.28.43-.51 1.237-.51 1.793 0 2.527-.829 5.185-1.976 6.342-1.005 1.012-1.108 1.286-.839 2.224.246.857.17 1.205-.38 1.755-.377.378-.686.903-.686 1.168 0 .265-.318.885-.706 1.379-.388.493-.705 1.164-.705 1.491 0 .328-.318.678-.706.78-.48.125-.705.48-.705 1.114 0 .512-.296 1.964-.657 3.227-.361 1.263-.586 2.779-.5 3.368.184 1.253-1.011 3.539-2.018 3.858-.51.162-.707.709-.898 2.49-.134 1.255-.384 2.369-.555 2.475-.171.106-.311.676-.311 1.267 0 .632-.364 1.507-.882 2.123-.677.803-.882 1.448-.882 2.764 0 .944-.146 1.806-.325 1.917-.179.11-.607.953-.952 1.873-.626 1.667-1.758 3.556-2.427 4.048-.724.53-2.257.265-2.78-.483zm4.015-55.296c0-.17-.452-.498-1.005-.727-.552-.229-1.877-1.478-2.943-2.776-3.127-3.808-3.064-3.586-1.574-5.537.71-.928 1.289-1.793 1.289-1.92 0-.129-.545-.762-1.211-1.408l-1.212-1.174.695-1.763c.383-.97.623-1.836.534-1.925-.09-.089-.767.25-1.506.751-.74.503-1.546.914-1.792.914-.247 0-.447.413-.447.927 0 1.014-1.812 4.451-2.974 5.641-1.109 1.135-3.115 3.693-2.973 3.79.07.047 1.04.363 2.155.702 1.115.34 2.028.753 2.028.918 0 .165-.502.475-1.115.689-.614.214-1.022.483-.907.598.116.115 1.848.736 3.85 1.379 2.752.884 4.307 1.177 6.374 1.2 1.504.017 2.734-.109 2.734-.28z"/></svg>