<svg xmlns="http://www.w3.org/2000/svg" viewBox="0 0 73.493 87.06"><path d="M43.199 86.545c-2.926-.787-5.283-2.211-7.826-4.729-2.878-2.85-4.963-6.611-7.14-12.88-3.425-9.871-7.43-16.405-11.709-19.109-1.831-1.157-1.966-1.505-.614-1.591 5.27-.335 9.02 2.44 12.46 9.224 1.335 2.63 1.672 2.376.891-.671-1.097-4.281-2.405-6.281-8.469-12.941C12.36 34.585 8.416 27.24 9.101 22.077c.199-1.5 1.36-4.47 1.746-4.47.069 0 .051.674-.04 1.498-.224 2.033.733 5.919 2.08 8.446 1.343 2.519 4.56 5.586 7.288 6.95 1.098.549 3.346 1.435 4.995 1.97 1.65.534 3.634 1.337 4.41 1.784 1.912 1.101 3.896 3.218 4.62 4.927.791 1.873 1.023 1.033.492-1.782-.77-4.08-4.362-8.779-9.106-11.914-1.226-.81-2.012-1.518-1.745-1.574.837-.174 6.72 1.915 9.102 3.232 4.837 2.675 8.094 5.94 10.498 10.529.638 1.218 1.082 1.898.985 1.51-.59-2.365-1.276-9.409-1.19-12.217l.102-3.306.592 2.47c1.395 5.815 5.477 13.91 9.013 17.873 5.38 6.03 8.107 10.155 10.397 15.73 1.184 2.882 1.341 3.61 1.341 6.198 0 8.051-4.685 14.366-12.323 16.61-2.35.69-6.6.692-9.16.004zm10.255-2.876c3.44-1.535 6.177-4.895 8.212-10.08l1.161-2.958-6.23-4.04-6.23-4.04-6.913 1.725-6.913 1.725-.75 4.705c-.617 3.866-.674 4.883-.321 5.7 1.46 3.383 4.506 6.087 8.388 7.445 2.927 1.025 7.07.946 9.596-.182zm-43.982-.325c-1.832-.961-3.684-3.024-4.376-4.874-.367-.98-.849-3.289-1.07-5.13-.615-5.1-1.55-7.877-3.299-9.785L0 62.762h.938c1.37 0 2.96 1.633 3.949 4.057l.864 2.116.008-1.5c.007-1.168-.491-2.459-2.245-5.821C.2 55.263-.606 51.79.66 49.339c.296-.573.574-1.041.618-1.041.043 0 .079 1.177.079 2.615 0 2.345.11 2.774 1.074 4.145.592.842 2.172 2.255 3.513 3.142 1.792 1.185 2.649 2.025 3.236 3.175l.8 1.563.006-1.411c.008-1.629-1.192-4.407-2.646-6.13l-1.006-1.192 1.183.612c1.576.815 4.524 3.603 5.219 4.935.306.588.746 1.703.977 2.477l.42 1.408.253-2.363c.139-1.3.386-2.806.549-3.348l.296-.985.036 1.058c.086 2.477 1.192 6.239 2.829 9.613 1.025 2.116 1.984 4.732 2.309 6.306.496 2.403.5 2.883.03 4.498-.577 1.982-2.784 4.476-4.55 5.139-1.478.556-5.186.434-6.414-.21zm7.035-1.67c.705-.537 1.7-1.609 2.21-2.38l.928-1.401-2.44-2.462-2.442-2.46-3.315.098-3.314.1-.871 2.018c-.961 2.228-.904 3.005.357 4.876 1.963 2.914 6.177 3.678 8.887 1.612zM58.079 39.34c-3.56-1.163-6.451-3.682-10.366-9.034-3.816-5.218-7.799-8.623-11.355-9.708l-1.486-.453 1.398-.6c2.655-1.14 5.822-.031 9.125 3.194 2.227 2.174 2.484 2.119 1.003-.218-1.343-2.117-3.788-4.209-7.247-6.2C29.396 10.704 24.743 5.38 25.716.95c.247-1.126.253-1.12 1.023 1.007 1.11 3.067 2.717 4.844 5.753 6.363 2.359 1.18 2.886 1.3 6.703 1.52 4.58.264 6.213.805 7.675 2.543 1.047 1.243 1.14.761.202-1.054C45.7 8.672 42.328 6.22 38.4 5.022l-2.116-.645 2.46-.106c4.808-.208 9.978 1.564 13.43 4.603.865.761 1.572 1.287 1.572 1.169 0-.119-.537-1.283-1.194-2.588C51.523 5.41 49.833.707 49.881.018c.008-.125.347.408.753 1.184 2.071 3.963 6.4 8.3 11.97 11.997 5.334 3.539 9.063 7.333 10.228 10.404 1.043 2.748.827 7.186-.472 9.716-1.114 2.17-3.635 4.558-5.853 5.545-2.072.922-6.326 1.162-8.428.476zm8.215-2.261c3.226-1.662 5.047-4.813 5.352-9.263l.188-2.754-2.077-.58a407.99 407.99 0 01-4.964-1.44l-2.888-.858-4.168 2.511c-2.292 1.382-4.23 2.57-4.304 2.64-.075.07.053 1.6.284 3.4.352 2.752.571 3.435 1.37 4.277 2.696 2.84 7.86 3.792 11.207 2.067z"/></svg>