<?xml version="1.0" encoding="UTF-8" standalone="no"?>
<svg
   id="svg2993"
   version="1.1"
   viewBox="0 0 149 173.99999"
   sodipodi:docname="leek6_back.svg"
   inkscape:version="1.2.1 (ef4d3fba62, 2022-07-19, custom)"
   width="149"
   height="174"
   xmlns:inkscape="http://www.inkscape.org/namespaces/inkscape"
   xmlns:sodipodi="http://sodipodi.sourceforge.net/DTD/sodipodi-0.dtd"
   xmlns="http://www.w3.org/2000/svg"
   xmlns:svg="http://www.w3.org/2000/svg">
  <sodipodi:namedview
     id="namedview1616"
     pagecolor="#ffffff"
     bordercolor="#666666"
     borderopacity="1.0"
     inkscape:showpageshadow="2"
     inkscape:pageopacity="0.0"
     inkscape:pagecheckerboard="0"
     inkscape:deskcolor="#d1d1d1"
     showgrid="true"
     inkscape:zoom="21.02355"
     inkscape:cx="66.235245"
     inkscape:cy="134.72986"
     inkscape:window-width="2486"
     inkscape:window-height="1376"
     inkscape:window-x="2634"
     inkscape:window-y="27"
     inkscape:window-maximized="1"
     inkscape:current-layer="svg2993">
    <inkscape:grid
       type="xygrid"
       id="grid2836"
       spacingx="74.499998"
       originx="0"
       originy="0" />
  </sodipodi:namedview>
  <defs
     id="defs2995">
    <filter
       id="s"
       color-interpolation-filters="sRGB"
       x="-0.081104557"
       y="-0.06283225"
       width="1.1585188"
       height="1.1249183">
      <feGaussianBlur
         id="feGaussianBlur12014"
         result="result6"
         stdDeviation="4" />
      <feComposite
         id="feComposite12016"
         in2="result6"
         operator="atop"
         in="SourceGraphic"
         result="result8" />
      <feComposite
         id="feComposite12018"
         in2="SourceAlpha"
         in="result8"
         operator="atop"
         result="result9" />
    </filter>
  </defs>
  <path
     d="M 63.487494,8.8903005 65.314433,3.3937933 87.08133,1.197052 C 77.241878,31.62603 86.309118,49.261626 97.3658,65.550633 L 81.801122,74.253048 58.488051,32.772104 Z"
     id="leaf10"
     fill="#005500"
     stroke="#000000"
     stroke-width="2.08431" />
  <path
     d="M 106.57539,6.9099755 106.18776,2.4753817 83.307437,6.240559 C 85.154087,30.863143 70.268762,49.021163 53.6222,66.498908 L 67.924971,70.18419 105.08353,26.951361 Z"
     id="leaf9"
     fill="#525252"
     fill-opacity="1"
     stroke="#000000"
     stroke-width="1.96355"
     stroke-linecap="butt"
     stroke-linejoin="miter"
     stroke-miterlimit="4.6461"
     stroke-dasharray="none"
     stroke-opacity="1" />
  <path
     d="M 53.000226,15.978515 54.444782,10.694545 74.3935,7.678292 C 66.649487,36.919694 75.761405,53.231584 86.6477,68.18331 L 72.691394,77.093996 49.42957,38.811204 Z"
     id="leaf8"
     fill="#007300"
     fill-opacity="1"
     stroke="#000000"
     stroke-width="1.94871"
     stroke-linecap="butt"
     stroke-linejoin="miter"
     stroke-miterlimit="4.6461"
     stroke-dasharray="none"
     stroke-opacity="1" />
  <path
     d="M 114.21428,10.218274 113.89672,6.1315751 93.043081,9.7869929 C 94.534066,32.480446 80.84626,49.345787 65.561032,65.597562 l 12.988743,3.285027 34.152495,-40.168871 z"
     id="leaf7"
     fill="#008200"
     fill-opacity="1"
     stroke="#000000"
     stroke-width="1.79868"
     stroke-linecap="butt"
     stroke-linejoin="miter"
     stroke-miterlimit="4.6461"
     stroke-dasharray="none"
     stroke-opacity="1" />
  <path
     d="m 38.969021,27.888001 0.938654,-4.929482 22.131759,-6.737991 c -4.910966,27.229663 7.518,39.663901 21.771276,50.541338 L 69.219291,77.438788 37.930937,48.642241 Z"
     id="leaf6"
     fill="#727272"
     fill-opacity="1"
     stroke="#000000"
     stroke-width="1.96519"
     stroke-linecap="butt"
     stroke-linejoin="miter"
     stroke-miterlimit="4.6461"
     stroke-dasharray="none"
     stroke-opacity="1" />
  <path
     d="m 124.55569,20.272709 0.48663,-4.2015 -22.32623,1.599075 C 99.725792,40.97459 82.180876,56.782672 63.104236,71.80227 l 12.79558,4.677383 43.394064,-37.492369 z"
     id="leaf5"
     fill="#00a000"
     fill-opacity="1"
     stroke="#000000"
     stroke-width="1.86669"
     stroke-linecap="butt"
     stroke-linejoin="miter"
     stroke-miterlimit="4.6461"
     stroke-dasharray="none"
     stroke-opacity="1" />
  <path
     d="m 24.749471,42.804044 0.381068,-4.792572 24.992839,-8.756713 c -1.7827,26.44273 14.625147,36.964903 32.947095,45.811595 L 67.503606,86.775326 26.56546,62.671676 Z"
     id="leaf4"
     fill="#00af00"
     fill-opacity="1"
     stroke="#000000"
     stroke-width="2.08843"
     stroke-linecap="butt"
     stroke-linejoin="miter"
     stroke-miterlimit="4.6461"
     stroke-dasharray="none"
     stroke-opacity="1" />
  <path
     d="m 132.51827,28.282825 1.21767,-4.85424 -21.52205,-1.479619 C 105.18471,48.828018 85.659111,64.729569 64.818168,79.475738 l 11.329123,7.407796 48.005429,-37.445051 z"
     id="leaf3"
     fill="#8e8e8e"
     fill-opacity="1"
     stroke="#000000"
     stroke-width="1.99528"
     stroke-linecap="butt"
     stroke-linejoin="miter"
     stroke-miterlimit="4.6461"
     stroke-dasharray="none"
     stroke-opacity="1" />
  <path
     d="M 65.412548,97.370414 C 47.242587,90.179809 25.062648,79.310905 11.927611,52.196432 l 25.427344,-8.648118 c 6.035774,25.306738 24.999846,33.209034 44.542091,42.726307 z"
     id="leaf2"
     fill="#00cd00"
     fill-opacity="1"
     stroke="#000000"
     stroke-width="2.04928"
     stroke-linecap="butt"
     stroke-linejoin="miter"
     stroke-miterlimit="4.6461"
     stroke-dasharray="none"
     stroke-opacity="1" />
  <path
     d="m 61.580399,100.22649 c 0,0 -0.302226,1.23876 -0.571164,-7.097912 -0.269376,-8.336679 36.389415,-29.078509 51.931755,-45.986125 5.08485,-5.531413 12.97823,-17.87412 13.26907,-17.872181 0.2904,0.0019 18.30311,-1.193003 21.35779,-1.372187 3.05512,-0.179183 -23.16196,28.870625 -33.29006,38.780394 -10.12854,9.909382 -26.876275,20.129038 -28.489027,25.59064 -1.612752,5.461988 -2.052076,6.948201 -1.955714,10.868511 0.0968,3.92032 -4.46989,7.75142 -4.46989,7.75142 l -16.38507,-2.77345 z"
     id="leaf1"
     fill="#00dc00"
     stroke="#000000"
     stroke-width="1.84897" />
  <path
     d="m 76.630854,172.90045 c 28.926166,-0.88389 8.411102,-17.96603 7.754963,-37.36088 -0.494075,-14.5887 0.751187,-39.292348 0.751187,-39.292348 l -3.476046,3.733374 -2.649083,-4.582362 -3.438377,8.588776 -5.012583,-9.734852 c -1.020564,4.236018 -2.049887,8.406882 -3.286388,12.561052 -1.929871,-3.20978 -6.360778,-10.922417 -6.360778,-10.922417 0,0 2.3635,24.954577 2.98416,40.439587 0.754253,18.82589 -16.192784,37.45435 12.732945,36.57046 z"
     id="body"
     fill="#ffffff"
     fill-opacity="1"
     stroke="#000000"
     stroke-width="2.13584"
     stroke-linecap="butt"
     stroke-linejoin="miter"
     stroke-miterlimit="4.6461"
     stroke-dasharray="none"
     stroke-opacity="1" />
  <path
     id="path2995-36-5"
     d="m 83.877288,138.8882 c 0.03066,1.15655 -1.200147,2.11994 -2.744569,2.15136 -1.544423,0.031 -2.819908,-0.8804 -2.848378,-2.03694 -0.03066,-1.15655 1.200147,-2.11995 2.744131,-2.15137 1.544422,-0.0314 2.819907,0.8804 2.848816,2.03695 z"
     fill="#000000"
     fill-opacity="1"
     stroke-width="31.4576"
     stroke-linecap="round"
     stroke-linejoin="round"
     stroke-miterlimit="4.6461" />
  <path
     d="m 83.136175,139.02782 c 0.445895,-2.29835 -3.425741,-4.16773 -6.572842,-3.88732"
     id="angry2"
     fill="none"
     stroke="#000000"
     stroke-width="1.36839"
     stroke-linecap="round"
     sodipodi:nodetypes="cc" />
  <path
     d="m 79.178757,148.8802 c 2.099819,-2.25531 5.055947,-3.46926 6.16674,-3.28232"
     id="angry"
     fill="none"
     stroke="#000000"
     stroke-width="2.20961"
     stroke-linecap="round"
     display="none" />
  <path
     d="m 61.844082,111.39093 c 10.19862,3.37229 22.217608,0.5934 22.871995,0.0194 l -0.423118,9.69569 c -2.664851,1.24575 -15.421011,2.27276 -21.374439,0.14661 z"
     id="metal1"
     fill="#b4b4b4"
     fill-opacity="1"
     stroke="#000000"
     stroke-width="1.12562"
     stroke-miterlimit="4"
     stroke-dasharray="none"
     stroke-opacity="1" />
  <ellipse
     id="metal2"
     cx="82.376251"
     cy="114.23421"
     rx="0.30967292"
     ry="0.28584009"
     fill="#acacac"
     fill-opacity="1"
     stroke="#000000"
     stroke-width="1.57117"
     stroke-linecap="round"
     stroke-linejoin="round"
     stroke-miterlimit="4"
     stroke-dasharray="none"
     stroke-opacity="1" />
  <ellipse
     id="metal3"
     cx="65.147522"
     cy="119.50654"
     rx="0.30967292"
     ry="0.28584009"
     fill="#acacac"
     fill-opacity="1"
     stroke="#000000"
     stroke-width="1.57117"
     stroke-linecap="round"
     stroke-linejoin="round"
     stroke-miterlimit="4"
     stroke-dasharray="none"
     stroke-opacity="1" />
  <ellipse
     id="metal4"
     cx="64.051224"
     cy="114.11436"
     rx="0.30967292"
     ry="0.28584009"
     fill="#acacac"
     fill-opacity="1"
     stroke="#000000"
     stroke-width="1.57117"
     stroke-linecap="round"
     stroke-linejoin="round"
     stroke-miterlimit="4"
     stroke-dasharray="none"
     stroke-opacity="1" />
  <ellipse
     id="metal5"
     cx="82.332405"
     cy="119.27306"
     rx="0.30967292"
     ry="0.28584009"
     fill="#acacac"
     fill-opacity="1"
     stroke="#000000"
     stroke-width="1.57117"
     stroke-linecap="round"
     stroke-linejoin="round"
     stroke-miterlimit="4"
     stroke-dasharray="none"
     stroke-opacity="1" />
  <path
     d="m 14.50924,56.619779 c 13.225268,-4.533882 3.273247,-1.253897 16.207676,-5.66328 l 7.218839,13.905325 c -6.53861,3.838868 -5.6385,3.226852 -11.940146,7.220856 C 20.757012,67.654291 17.026044,62.44983 14.50924,56.619391 Z"
     id="metal6"
     fill="#acacac"
     fill-opacity="1"
     stroke="#000000"
     stroke-width="1.28389"
     stroke-miterlimit="4"
     stroke-dasharray="none"
     stroke-opacity="1" />
  <ellipse
     id="metal7"
     transform="matrix(0.8448259,-0.5350413,0.53905131,0.84227293,0,0)"
     cx="-4.2344127"
     cy="61.049622"
     rx="0.27368402"
     ry="0.21633203"
     fill="#acacac"
     fill-opacity="1"
     stroke="#000000"
     stroke-width="1.28362"
     stroke-linecap="round"
     stroke-linejoin="round"
     stroke-miterlimit="4"
     stroke-dasharray="none"
     stroke-opacity="1" />
  <ellipse
     id="metal8"
     transform="matrix(0.8448259,-0.5350413,0.53905131,0.84227293,0,0)"
     cx="-5.0344324"
     cy="73.222664"
     rx="0.27368402"
     ry="0.21633203"
     fill="#acacac"
     fill-opacity="1"
     stroke="#000000"
     stroke-width="1.28362"
     stroke-linecap="round"
     stroke-linejoin="round"
     stroke-miterlimit="4"
     stroke-dasharray="none"
     stroke-opacity="1" />
  <path
     d="M 110.37513,69.884 C 104.2154,68.665009 98.784951,68.017701 99.281654,66.336402 110.30198,57.632048 121.35735,48.825691 130.25376,34.68223 c 2.79976,0.416155 10.05276,0.0225 13.20162,-0.154361 -8.88153,11.504578 -21.45066,25.817914 -33.08025,35.356131 z"
     id="metal9"
     fill="#acacac"
     fill-opacity="1"
     stroke="#000000"
     stroke-width="1.18456"
     stroke-miterlimit="4"
     stroke-dasharray="none"
     stroke-opacity="1" />
  <ellipse
     id="metal10"
     transform="matrix(-0.87701641,-0.48046042,0.71282869,-0.70133819,0,0)"
     cx="-124.21637"
     cy="-8.5260086"
     rx="0.20301458"
     ry="0.2589601"
     fill="#acacac"
     fill-opacity="1"
     stroke="#000000"
     stroke-width="1.21045"
     stroke-linecap="round"
     stroke-linejoin="round"
     stroke-miterlimit="4"
     stroke-dasharray="none"
     stroke-opacity="1" />
  <ellipse
     id="metal11"
     transform="matrix(-0.87701641,-0.48046042,0.71282869,-0.70133819,0,0)"
     cx="-123.45191"
     cy="31.897652"
     rx="0.20301458"
     ry="0.2589601"
     fill="#acacac"
     fill-opacity="1"
     stroke="#000000"
     stroke-width="1.21045"
     stroke-linecap="round"
     stroke-linejoin="round"
     stroke-miterlimit="4"
     stroke-dasharray="none"
     stroke-opacity="1" />
  <ellipse
     id="metal12"
     transform="matrix(-0.87701641,-0.48046042,0.71282869,-0.70133819,0,0)"
     cx="-125.10151"
     cy="2.57967"
     rx="0.20301458"
     ry="0.2589601"
     fill="#acacac"
     fill-opacity="1"
     stroke="#000000"
     stroke-width="1.21045"
     stroke-linecap="round"
     stroke-linejoin="round"
     stroke-miterlimit="4"
     stroke-dasharray="none"
     stroke-opacity="1" />
  <ellipse
     id="metal13"
     transform="matrix(-0.87701641,-0.48046042,0.71282869,-0.70133819,0,0)"
     cx="-125.16559"
     cy="18.145651"
     rx="0.20301458"
     ry="0.2589601"
     fill="#acacac"
     fill-opacity="1"
     stroke="#000000"
     stroke-width="1.21045"
     stroke-linecap="round"
     stroke-linejoin="round"
     stroke-miterlimit="4"
     stroke-dasharray="none"
     stroke-opacity="1" />
  <ellipse
     id="metal14"
     transform="matrix(-0.87701641,-0.48046042,0.71282869,-0.70133819,0,0)"
     cx="-102.1464"
     cy="34.229523"
     rx="0.20301458"
     ry="0.2589601"
     fill="#acacac"
     fill-opacity="1"
     stroke="#000000"
     stroke-width="1.21045"
     stroke-linecap="round"
     stroke-linejoin="round"
     stroke-miterlimit="4"
     stroke-dasharray="none"
     stroke-opacity="1" />
  <ellipse
     transform="matrix(-0.87701641,-0.48046042,0.71282869,-0.70133819,0,0)"
     id="metal15"
     cx="-114.97112"
     cy="42.00613"
     rx="0.20301458"
     ry="0.2589601"
     fill="#acacac"
     fill-opacity="1"
     stroke="#000000"
     stroke-width="1.21045"
     stroke-linecap="round"
     stroke-linejoin="round"
     stroke-miterlimit="4"
     stroke-dasharray="none"
     stroke-opacity="1" />
  <ellipse
     transform="matrix(-0.87701641,-0.48046042,0.71282869,-0.70133819,0,0)"
     id="metal16"
     cx="-110.09494"
     cy="10.700336"
     rx="0.20301458"
     ry="0.2589601"
     fill="#acacac"
     fill-opacity="1"
     stroke="#000000"
     stroke-width="1.21045"
     stroke-linecap="round"
     stroke-linejoin="round"
     stroke-miterlimit="4"
     stroke-dasharray="none"
     stroke-opacity="1" />
  <ellipse
     transform="matrix(-0.87701641,-0.48046042,0.71282869,-0.70133819,0,0)"
     id="metal17"
     cx="-111.98451"
     cy="-10.30584"
     rx="0.20301458"
     ry="0.2589601"
     fill="#acacac"
     fill-opacity="1"
     stroke="#000000"
     stroke-width="1.21045"
     stroke-linecap="round"
     stroke-linejoin="round"
     stroke-miterlimit="4"
     stroke-dasharray="none"
     stroke-opacity="1" />
  <ellipse
     transform="matrix(-0.87701641,-0.48046042,0.71282869,-0.70133819,0,0)"
     id="metal18"
     cx="-109.73993"
     cy="-35.454983"
     rx="0.20301458"
     ry="0.2589601"
     fill="#acacac"
     fill-opacity="1"
     stroke="#000000"
     stroke-width="1.21045"
     stroke-linecap="round"
     stroke-linejoin="round"
     stroke-miterlimit="4"
     stroke-dasharray="none"
     stroke-opacity="1" />
  <ellipse
     transform="matrix(-0.87701641,-0.48046042,0.71282869,-0.70133819,0,0)"
     id="metal19"
     cx="-57.956329"
     cy="11.247011"
     rx="0.20301458"
     ry="0.2589601"
     fill="#acacac"
     fill-opacity="1"
     stroke="#000000"
     stroke-width="1.21045"
     stroke-linecap="round"
     stroke-linejoin="round"
     stroke-miterlimit="4"
     stroke-dasharray="none"
     stroke-opacity="1" />
  <ellipse
     transform="matrix(-0.87701641,-0.48046042,0.71282869,-0.70133819,0,0)"
     id="metal20"
     cx="-49.627186"
     cy="-1.7424908"
     rx="0.20301458"
     ry="0.2589601"
     fill="#acacac"
     fill-opacity="1"
     stroke="#000000"
     stroke-width="1.21045"
     stroke-linecap="round"
     stroke-linejoin="round"
     stroke-miterlimit="4"
     stroke-dasharray="none"
     stroke-opacity="1" />
  <ellipse
     transform="matrix(-0.87701641,-0.48046042,0.71282869,-0.70133819,0,0)"
     id="metal21"
     cx="-98.427155"
     cy="-19.764469"
     rx="0.20301458"
     ry="0.2589601"
     fill="#acacac"
     fill-opacity="1"
     stroke="#000000"
     stroke-width="1.21045"
     stroke-linecap="round"
     stroke-linejoin="round"
     stroke-miterlimit="4"
     stroke-dasharray="none"
     stroke-opacity="1" />
  <ellipse
     transform="matrix(-0.87701641,-0.48046042,0.71282869,-0.70133819,0,0)"
     id="metal22"
     cx="-75.396049"
     cy="-7.9813709"
     rx="0.20301458"
     ry="0.2589601"
     fill="#acacac"
     fill-opacity="1"
     stroke="#000000"
     stroke-width="1.21045"
     stroke-linecap="round"
     stroke-linejoin="round"
     stroke-miterlimit="4"
     stroke-dasharray="none"
     stroke-opacity="1" />
  <ellipse
     transform="matrix(-0.87701641,-0.48046042,0.71282869,-0.70133819,0,0)"
     id="metal23"
     cx="-69.30941"
     cy="35.795223"
     rx="0.20301458"
     ry="0.2589601"
     fill="#acacac"
     fill-opacity="1"
     stroke="#000000"
     stroke-width="1.21045"
     stroke-linecap="round"
     stroke-linejoin="round"
     stroke-miterlimit="4"
     stroke-dasharray="none"
     stroke-opacity="1" />
  <ellipse
     transform="matrix(-0.87701641,-0.48046042,0.71282869,-0.70133819,0,0)"
     id="metal24"
     cx="-79.878067"
     cy="47.302914"
     rx="0.20301458"
     ry="0.2589601"
     fill="#acacac"
     fill-opacity="1"
     stroke="#000000"
     stroke-width="1.21045"
     stroke-linecap="round"
     stroke-linejoin="round"
     stroke-miterlimit="4"
     stroke-dasharray="none"
     stroke-opacity="1" />
  <ellipse
     transform="matrix(-0.87701641,-0.48046042,0.71282869,-0.70133819,0,0)"
     id="metal25"
     cx="-78.78064"
     cy="21.595961"
     rx="0.20301458"
     ry="0.2589601"
     fill="#acacac"
     fill-opacity="1"
     stroke="#000000"
     stroke-width="1.21045"
     stroke-linecap="round"
     stroke-linejoin="round"
     stroke-miterlimit="4"
     stroke-dasharray="none"
     stroke-opacity="1" />
  <ellipse
     transform="matrix(-0.87701641,-0.48046042,0.71282869,-0.70133819,0,0)"
     id="metal26"
     cx="-87.215935"
     cy="-0.082268186"
     rx="0.20301458"
     ry="0.2589601"
     fill="#acacac"
     fill-opacity="1"
     stroke="#000000"
     stroke-width="1.21045"
     stroke-linecap="round"
     stroke-linejoin="round"
     stroke-miterlimit="4"
     stroke-dasharray="none"
     stroke-opacity="1" />
  <path
     d="m 79.178757,148.8802 c 2.956458,-0.13074 5.021349,-0.71552 6.802405,-2.43631"
     id="happy"
     fill="none"
     stroke="#000000"
     stroke-width="2.20961"
     stroke-linecap="round"
     sodipodi:nodetypes="cc" />
  <path
     d="m 79.178757,148.8802 c 3.199473,-1.13937 4.355919,-1.59901 6.802405,-2.43631"
     id="neutral"
     fill="none"
     stroke="#000000"
     stroke-width="2.20961"
     stroke-linecap="round"
     display="none" />
</svg>
