<?xml version="1.0" encoding="UTF-8" standalone="no"?>
<svg
   xmlns:dc="http://purl.org/dc/elements/1.1/"
   xmlns:cc="http://creativecommons.org/ns#"
   xmlns:rdf="http://www.w3.org/1999/02/22-rdf-syntax-ns#"
   xmlns:svg="http://www.w3.org/2000/svg"
   xmlns="http://www.w3.org/2000/svg"
   xmlns:sodipodi="http://sodipodi.sourceforge.net/DTD/sodipodi-0.dtd"
   xmlns:inkscape="http://www.inkscape.org/namespaces/inkscape"
   width="210mm"
   height="297mm"
   viewBox="0 0 210 297"
   version="1.1"
   id="svg518"
   inkscape:version="1.0 (b51213c273, 2020-08-10)"
   sodipodi:docname="leek2_black.svg">
  <defs
     id="defs512">
    <filter
       id="filter11972"
       inkscape:label="Darken edges"
       inkscape:menu="Shadows and Glows"
       inkscape:menu-tooltip="Darken the edges with an inner blur"
       color-interpolation-filters="sRGB">
      <feGaussianBlur
         id="feGaussianBlur11974"
         result="result6"
         stdDeviation="0.80000000000000004" />
      <feComposite
         id="feComposite11976"
         in2="result6"
         operator="atop"
         in="SourceGraphic"
         result="result8" />
      <feComposite
         id="feComposite11978"
         in2="SourceAlpha"
         in="result8"
         operator="atop"
         result="result9" />
    </filter>
    <filter
       id="filter499"
       inkscape:label="Darken edges"
       inkscape:menu="Shadows and Glows"
       inkscape:menu-tooltip="Darken the edges with an inner blur"
       color-interpolation-filters="sRGB">
      <feGaussianBlur
         id="feGaussianBlur493"
         result="result6"
         stdDeviation="0.80000000000000004" />
      <feComposite
         id="feComposite495"
         in2="result6"
         operator="atop"
         in="SourceGraphic"
         result="result8" />
      <feComposite
         id="feComposite497"
         in2="SourceAlpha"
         in="result8"
         operator="atop"
         result="result9" />
    </filter>
  </defs>
  <sodipodi:namedview
     id="base"
     pagecolor="#ffffff"
     bordercolor="#666666"
     borderopacity="1.0"
     inkscape:pageopacity="0.0"
     inkscape:pageshadow="2"
     inkscape:zoom="0.7"
     inkscape:cx="203.88893"
     inkscape:cy="541.96683"
     inkscape:document-units="mm"
     inkscape:current-layer="layer1"
     inkscape:document-rotation="0"
     showgrid="false"
     inkscape:window-width="1655"
     inkscape:window-height="1083"
     inkscape:window-x="160"
     inkscape:window-y="115"
     inkscape:window-maximized="0" />
  <metadata
     id="metadata515">
    <rdf:RDF>
      <cc:Work
         rdf:about="">
        <dc:format>image/svg+xml</dc:format>
        <dc:type
           rdf:resource="http://purl.org/dc/dcmitype/StillImage" />
        <dc:title></dc:title>
      </cc:Work>
    </rdf:RDF>
  </metadata>
  <g
     inkscape:label="Calque 1"
     inkscape:groupmode="layer"
     id="layer1">
    <g
       id="g11534"
       style="fill:#ffffff;fill-opacity:1;"
       inkscape:export-filename="/home/pierre/sites/leekwars/R/texture/leek/leek2.png"
       inkscape:export-xdpi="400"
       inkscape:export-ydpi="400"
       transform="matrix(5.186399,0,0,5.186399,-131.24998,-88.172228)">
      <path
         sodipodi:nodetypes="ccccccc"
         inkscape:connector-curvature="0"
         id="path3807-4-9-7"
         d="m 41.00951,27.684224 0.450137,-0.916096 3.425623,0.902251 c -2.449378,5.088384 -1.590132,8.927987 -0.382692,12.636169 l -2.667784,0.686396 -2.327523,-9.15096 z"
         style="fill:#ffffff;fill-opacity:1;stroke:#000000;stroke-width:0.364943;stroke-linecap:butt;stroke-linejoin:miter;stroke-miterlimit:4.64615;stroke-dasharray:none;stroke-opacity:1" />
      <path
         sodipodi:nodetypes="ccccccc"
         inkscape:connector-curvature="0"
         id="path3807-4-9-1"
         d="m 48.488131,30.80083 0.175977,-0.837448 -3.473162,-1.190087 c -1.020889,4.625057 -4.10047,6.705023 -7.396696,8.517153 l 1.855835,1.841155 7.578119,-4.811559 z"
         style="fill:#ffffff;fill-opacity:1;stroke:#000000;stroke-width:0.341755;stroke-linecap:butt;stroke-linejoin:miter;stroke-miterlimit:4.64615;stroke-dasharray:none;stroke-opacity:1" />
      <path
         sodipodi:nodetypes="ccccccc"
         inkscape:connector-curvature="0"
         id="path3807-5"
         d="m 35.840916,28.729579 0.33299,-0.913068 4.763384,0.581071 c -1.782604,5.067389 0.435211,8.668473 3.074008,12.115247 l -3.316325,0.875799 -5.65376,-8.559497 z"
         style="fill:#ffffff;fill-opacity:1;stroke:#000000;stroke-width:0.412512;stroke-linecap:butt;stroke-linejoin:miter;stroke-miterlimit:4.64615;stroke-dasharray:none;stroke-opacity:1" />
      <path
         sodipodi:nodetypes="ccccccc"
         inkscape:connector-curvature="0"
         id="path3807-4-8"
         d="m 51.758017,33.296021 0.311769,-0.817576 -3.485819,-1.550606 c -1.773502,4.51019 -5.33626,6.264884 -9.087309,7.7296 l 1.96843,2.716647 8.433666,-4.696698 z"
         style="fill:#ffffff;fill-opacity:1;stroke:#000000;stroke-width:0.353359;stroke-linecap:butt;stroke-linejoin:miter;stroke-miterlimit:4.64615;stroke-dasharray:none;stroke-opacity:1" />
      <path
         sodipodi:nodetypes="ccccc"
         inkscape:connector-curvature="0"
         id="path3805-5"
         d="M 39.371976,43.310604 C 36.687604,40.1874 33.530376,35.961989 32.84378,29.375882 l 4.827091,0.675277 c -0.41948,5.563631 2.359516,8.901801 5.144632,12.613132 -1.147842,0.215438 1.146722,17.642909 -3.443527,0.646313 z"
         style="fill:#ffffff;fill-opacity:1;stroke:#000000;stroke-width:0.404798;stroke-linecap:butt;stroke-linejoin:miter;stroke-miterlimit:4.64615;stroke-dasharray:none;stroke-opacity:1" />
      <path
         sodipodi:nodetypes="czzzzzzccc"
         inkscape:connector-curvature="0"
         id="path3769-2"
         d="m 39.656923,42.836725 c 0.246722,-1.70854 4.486525,-3.265195 6.268673,-4.461543 1.782147,-1.196346 5.421693,-4.791528 5.468731,-4.770504 0.04704,0.02102 3.009877,1.059841 3.511526,1.240781 0.501652,0.180929 -4.761779,4.203408 -6.749506,5.491323 -1.987727,1.287912 -4.021206,2.477121 -4.472984,3.469264 -0.451776,0.992143 -0.243301,1.041141 -0.364187,1.842447 -0.120888,0.801304 -0.508774,1.09821 -0.508774,1.09821 l -2.847888,-0.313061 c 0.583304,0.61026 -0.51335,-1.891253 -0.305591,-3.596917 z"
         style="fill:#ffffff;fill-opacity:1;stroke:#000000;stroke-width:0.347579;stroke-linecap:butt;stroke-linejoin:miter;stroke-miterlimit:4.64615;stroke-dasharray:none;stroke-opacity:1" />
      <path
         sodipodi:nodetypes="zssccccssz"
         inkscape:connector-curvature="0"
         id="path2993-8"
         d="m 42.162989,59.793446 c 4.94989,-0.181772 1.439318,-3.69421 1.327004,-7.682066 -0.08449,-2.999716 0.03389,-6.651204 0.128601,-8.079278 0.0372,-0.560896 -0.829974,1.791189 -0.911073,1.549581 l -1.097682,-1.623371 -0.300614,-0.443092 -0.571031,2.748266 c -0.537718,-0.375528 -0.851454,-1.04961 -1.078354,-2.067625 -0.40902,-1.835116 0.218034,4.894064 0.32421,8.078083 0.129082,3.870908 -2.77095,7.701274 2.178939,7.519502 z"
         style="fill:#ffffff;fill-opacity:1;stroke:#000000;stroke-width:0.400662;stroke-linecap:butt;stroke-linejoin:miter;stroke-miterlimit:4.64615;stroke-dasharray:none;stroke-opacity:1" />
      <ellipse
         transform="matrix(0.03655221,-8.2311922e-4,8.2311922e-4,0.03655221,30.717125,26.687087)"
         id="path2995-7"
         style="fill:#000000;fill-opacity:1;stroke-width:7.63228;stroke-linecap:round;stroke-linejoin:round;stroke-miterlimit:4.64615;stroke-dasharray:none"
         cx="314.15744"
         cy="730.6286"
         rx="11.616755"
         ry="9.5964489" />
      <path
         sodipodi:nodetypes="cc"
         inkscape:connector-curvature="0"
         id="path3795-3"
         d="m 41.18166,54.678671 c 1.390185,-0.158982 1.385549,-0.158069 2.1488,-0.155935"
         style="fill:#ffffff;stroke:#000000;stroke-width:0.377711;stroke-linecap:round;stroke-linejoin:round;stroke-miterlimit:4;stroke-dasharray:none;stroke-opacity:1;fill-opacity:1" />
      <ellipse
         transform="matrix(0.03655221,-8.2311922e-4,8.2311922e-4,0.03655221,29.087332,26.818124)"
         id="path2995-7-9"
         style="fill:#000000;fill-opacity:1;stroke-width:7.63228;stroke-linecap:round;stroke-linejoin:round;stroke-miterlimit:4.64615;stroke-dasharray:none;filter:url(#filter11972)"
         cx="314.15744"
         cy="730.6286"
         rx="11.616755"
         ry="9.5964489" />
    </g>
  </g>
</svg>
