<?xml version="1.0" encoding="UTF-8" standalone="no"?>
<svg
   xmlns:dc="http://purl.org/dc/elements/1.1/"
   xmlns:cc="http://creativecommons.org/ns#"
   xmlns:rdf="http://www.w3.org/1999/02/22-rdf-syntax-ns#"
   xmlns:svg="http://www.w3.org/2000/svg"
   xmlns="http://www.w3.org/2000/svg"
   xmlns:sodipodi="http://sodipodi.sourceforge.net/DTD/sodipodi-0.dtd"
   xmlns:inkscape="http://www.inkscape.org/namespaces/inkscape"
   width="210mm"
   height="297mm"
   viewBox="0 0 210 297"
   version="1.1"
   id="svg551"
   inkscape:version="1.0 (b51213c273, 2020-08-10)"
   sodipodi:docname="leek7_black.svg">
  <defs
     id="defs545">
    <filter
       id="filter12012"
       inkscape:label="Darken edges"
       inkscape:menu="Shadows and Glows"
       inkscape:menu-tooltip="Darken the edges with an inner blur"
       color-interpolation-filters="sRGB">
      <feGaussianBlur
         id="feGaussianBlur12014"
         result="result6"
         stdDeviation="1" />
      <feComposite
         id="feComposite12016"
         in2="result6"
         operator="atop"
         in="SourceGraphic"
         result="result8" />
      <feComposite
         id="feComposite12018"
         in2="SourceAlpha"
         in="result8"
         operator="atop"
         result="result9" />
    </filter>
    <filter
       id="filter499"
       inkscape:label="Darken edges"
       inkscape:menu="Shadows and Glows"
       inkscape:menu-tooltip="Darken the edges with an inner blur"
       color-interpolation-filters="sRGB">
      <feGaussianBlur
         id="feGaussianBlur493"
         result="result6"
         stdDeviation="1" />
      <feComposite
         id="feComposite495"
         in2="result6"
         operator="atop"
         in="SourceGraphic"
         result="result8" />
      <feComposite
         id="feComposite497"
         in2="SourceAlpha"
         in="result8"
         operator="atop"
         result="result9" />
    </filter>
  </defs>
  <sodipodi:namedview
     id="base"
     pagecolor="#ffffff"
     bordercolor="#666666"
     borderopacity="1.0"
     inkscape:pageopacity="0.0"
     inkscape:pageshadow="2"
     inkscape:zoom="0.98994949"
     inkscape:cx="303.71674"
     inkscape:cy="591.9126"
     inkscape:document-units="mm"
     inkscape:current-layer="g4603"
     inkscape:document-rotation="0"
     showgrid="false"
     inkscape:window-width="1655"
     inkscape:window-height="1083"
     inkscape:window-x="205"
     inkscape:window-y="160"
     inkscape:window-maximized="0" />
  <metadata
     id="metadata548">
    <rdf:RDF>
      <cc:Work
         rdf:about="">
        <dc:format>image/svg+xml</dc:format>
        <dc:type
           rdf:resource="http://purl.org/dc/dcmitype/StillImage" />
        <dc:title></dc:title>
      </cc:Work>
    </rdf:RDF>
  </metadata>
  <g
     inkscape:label="Calque 1"
     inkscape:groupmode="layer"
     id="layer1">
    <g
       id="g4603"
       transform="matrix(3.8367746,0,0,3.8367746,-665.14037,6.9167282)"
       style="fill:#ffffff;fill-opacity:1">
      <g
         id="g4710"
         style="fill:#ffffff;fill-opacity:1;">
        <g
           id="g11600"
           style="fill:#ffffff;fill-opacity:1"
           transform="matrix(1.1293427,0,0,1,-23.684303,0)">
          <path
             style="fill:#ffffff;fill-opacity:1;stroke:#000000;stroke-width:0.50572;stroke-linecap:butt;stroke-linejoin:miter;stroke-miterlimit:4.64615;stroke-dasharray:none;stroke-opacity:1;"
             d="m 194.88417,15.92299 0.41716,-1.246868 4.96947,1.462148 c -2.24638,6.928696 -0.1763,12.320806 2.34804,17.551208 l -3.5535,0.793192 -5.32256,-12.867979 z"
             id="path3807-4-9-7-1-0-5"
             inkscape:connector-curvature="0"
             sodipodi:nodetypes="ccccccc" />
          <path
             style="fill:#ffffff;fill-opacity:1;stroke:#000000;stroke-width:0.476383;stroke-linecap:butt;stroke-linejoin:miter;stroke-miterlimit:4.64615;stroke-dasharray:none;stroke-opacity:1;"
             d="m 204.72146,19.428047 -0.0885,-1.179464 -5.22375,-1.161638 c 0.42162,6.520673 -2.97681,9.815217 -6.77725,12.770261 l 3.26539,2.283175 8.48344,-7.68398 z"
             id="path3807-4-9-5-9-0"
             inkscape:connector-curvature="0"
             sodipodi:nodetypes="ccccccc" />
          <path
             style="fill:#ffffff;fill-opacity:1;stroke:#000000;stroke-width:0.472774;stroke-linecap:butt;stroke-linejoin:miter;stroke-miterlimit:4.64615;stroke-dasharray:none;stroke-opacity:1;"
             d="m 192.48988,16.773222 0.32988,-1.227733 4.55436,1.081458 c -1.76806,6.817683 0.31232,11.872804 2.79769,16.742438 l -3.18625,0.996826 -5.31084,-12.038679 z"
             id="path3807-4-9-7-1-04"
             inkscape:connector-curvature="0"
             sodipodi:nodetypes="ccccccc" />
          <path
             style="fill:#ffffff;fill-opacity:1;stroke:#000000;stroke-width:0.436429;stroke-linecap:butt;stroke-linejoin:miter;stroke-miterlimit:4.64615;stroke-dasharray:none;stroke-opacity:1;"
             d="m 206.46547,20.993011 -0.0726,-1.083315 -4.76088,-1.001007 c 0.34032,5.990126 -2.78466,9.062992 -6.27433,11.828861 l 2.96539,2.057368 7.79712,-7.174108 z"
             id="path3807-4-9-5-7-0"
             inkscape:connector-curvature="0"
             sodipodi:nodetypes="ccccccc" />
          <path
             style="fill:#ffffff;fill-opacity:1;stroke:#000000;stroke-width:0.476804;stroke-linecap:butt;stroke-linejoin:miter;stroke-miterlimit:4.64615;stroke-dasharray:none;stroke-opacity:1;"
             d="m 189.28652,18.536294 0.21433,-1.183589 5.05274,0.325332 c -1.1212,6.563154 1.71639,10.927497 4.97058,15.060439 l -3.33131,1.393028 -7.14336,-10.340824 z"
             id="path3807-4-9-7-04-4"
             inkscape:connector-curvature="0"
             sodipodi:nodetypes="ccccccc" />
          <path
             style="fill:#ffffff;fill-opacity:1;stroke:#000000;stroke-width:0.452913;stroke-linecap:butt;stroke-linejoin:miter;stroke-miterlimit:4.64615;stroke-dasharray:none;stroke-opacity:1;"
             d="m 208.82647,24.549205 0.11107,-1.037981 -5.09726,-1.668418 c -0.68264,5.730003 -4.68826,8.17079 -9.04357,10.265442 l 2.92126,2.3985 9.90716,-5.622667 z"
             id="path3807-4-9-3-7"
             inkscape:connector-curvature="0"
             sodipodi:nodetypes="ccccccc" />
          <path
             style="fill:#ffffff;fill-opacity:1;stroke:#000000;stroke-width:0.506717;stroke-linecap:butt;stroke-linejoin:miter;stroke-miterlimit:4.64615;stroke-dasharray:none;stroke-opacity:1;"
             d="m 186.04015,21.056929 0.0869,-1.200204 5.70606,0.07147 c -0.40701,6.651781 3.33894,10.893896 7.52194,14.882438 l -3.5539,1.568232 -9.34641,-10.030005 z"
             id="path3807-06-1"
             inkscape:connector-curvature="0"
             sodipodi:nodetypes="ccccccc" />
          <path
             style="fill:#ffffff;fill-opacity:1;stroke:#000000;stroke-width:0.484068;stroke-linecap:butt;stroke-linejoin:miter;stroke-miterlimit:4.64615;stroke-dasharray:none;stroke-opacity:1;"
             d="m 210.6443,27.356515 0.27797,-1.138084 -4.91351,-2.387271 c -1.6048,6.275316 -6.06267,8.555527 -10.82078,10.415318 l 2.58656,2.96591 10.95986,-5.180876 z"
             id="path3807-4-88-4"
             inkscape:connector-curvature="0"
             sodipodi:nodetypes="ccccccc" />
          <path
             style="fill:#ffffff;fill-opacity:1;stroke:#000000;stroke-width:0.497242;stroke-linecap:butt;stroke-linejoin:miter;stroke-miterlimit:4.64615;stroke-dasharray:none;stroke-opacity:1;"
             d="m 195.32372,38.915828 c -4.14828,-3.54746 -9.21212,-8.416917 -12.2109,-16.632127 l 5.80515,0.139963 c 1.37804,7.0874 5.70765,10.892339 10.16929,15.167584 z"
             id="path3805-3-9"
             inkscape:connector-curvature="0"
             sodipodi:nodetypes="ccccc" />
          <path
             style="fill:#ffffff;fill-opacity:1;stroke:#000000;stroke-width:0.448585;stroke-linecap:butt;stroke-linejoin:miter;stroke-miterlimit:4.64615;stroke-dasharray:none;stroke-opacity:1;"
             d="m 194.31282,39.81655 c 0,0 0.067,-0.230235 0.006,-2.404837 -0.0615,-2.174606 8.30793,-4.106116 11.85632,-7.017005 1.16092,-0.95236 2.96308,-3.399059 3.0294,-3.371521 0.0663,0.02756 4.17873,1.398182 4.87615,1.63669 0.69743,0.238513 -5.28794,5.285325 -7.60031,6.8965 -2.31238,1.611172 -6.09848,2.66781 -6.46668,3.925785 -0.36819,1.257978 -0.46845,1.600274 -0.44642,2.620078 0.0221,1.019813 -1.05811,1.599352 -1.05811,1.599352 l -3.49242,0.155471 z"
             id="path3769-21-6"
             inkscape:connector-curvature="0"
             sodipodi:nodetypes="czazzzzzccc" />
          <path
             style="fill:#ffffff;fill-opacity:1;stroke:#000000;stroke-width:0.51823;stroke-linecap:butt;stroke-linejoin:miter;stroke-miterlimit:4.64615;stroke-dasharray:none;stroke-opacity:1;"
             d="m 197.88495,59.733081 c 6.60389,-0.227933 1.92027,-4.632397 1.77042,-9.633027 -0.11273,-3.761532 0.009,-9.585001 0.0459,-9.629563 l -0.66791,0.46113 -0.60485,-1.181482 -0.78489,2.214485 -1.14444,-2.510022 -0.27601,1.43849 -0.47431,1.800218 c -0.32533,-0.814838 -0.94762,-1.355642 -1.25034,-2.632196 -0.54569,-2.301167 0.33779,6.250147 0.47943,10.242792 0.17223,4.853975 -3.69685,9.657116 2.90704,9.429175 z"
             id="path2993-9-5"
             inkscape:connector-curvature="0"
             sodipodi:nodetypes="zscccccccssz" />
          <path
             inkscape:connector-curvature="0"
             id="path2995-36-5"
             d="m 198.15658,51.515846 c 0.007,0.298202 -0.27397,0.546531 -0.62658,0.55466 -0.35261,0.0081 -0.64377,-0.227021 -0.65032,-0.525223 -0.007,-0.298201 0.27397,-0.546531 0.62657,-0.55466 0.35261,-0.0081 0.64376,0.227022 0.65033,0.525223 z"
             style="fill:#000000;fill-opacity:1;stroke-width:7.63228;stroke-linecap:round;stroke-linejoin:round;stroke-miterlimit:4.64615;" />
          <path
             style="fill:none;stroke:#000000;stroke-width:0.331974;stroke-linecap:round;stroke-linejoin:miter;stroke-miterlimit:4;stroke-dasharray:none;stroke-opacity:1;fill-opacity:1;"
             d="m 197.98743,51.55178 c 0.10185,-0.592552 -1.25083,-0.859694 -1.96929,-0.78734"
             id="path2997-0-4"
             inkscape:connector-curvature="0"
             sodipodi:nodetypes="cc" />
          <path
             style="fill:#ffffff;stroke:#000000;stroke-width:0.536107;stroke-linecap:round;stroke-linejoin:round;stroke-miterlimit:4;stroke-dasharray:none;stroke-opacity:1;fill-opacity:1;"
             d="m 196.8078,53.758133 c 0.37699,-0.312117 0.87033,-0.532648 1.25293,-0.593425 0.71001,-0.112781 1.61553,-0.269557 1.86913,-0.221322"
             id="path3795-0-1"
             inkscape:connector-curvature="0"
             sodipodi:nodetypes="csc" />
          <path
             style="fill:#ffffff;fill-opacity:1;stroke:#000000;stroke-width:0.273055;stroke-miterlimit:4;stroke-dasharray:none;stroke-opacity:1;"
             d="m 194.44547,43.873554 c 2.32833,0.86959 5.13595,0.152979 5.28539,0.005 l -0.0966,2.499899 c -0.60847,0.321297 -3.52074,0.586096 -4.87994,0.03783 z"
             id="rect3919-1-8"
             inkscape:connector-curvature="0"
             sodipodi:nodetypes="ccccc" />
          <circle
             r="1.5152289"
             cy="721.03217"
             cx="351.02802"
             style="fill:#ffffff;fill-opacity:1;stroke:#000000;stroke-width:8;stroke-linecap:round;stroke-linejoin:round;stroke-miterlimit:4;stroke-dasharray:none;stroke-opacity:1;"
             id="path3924-7-3"
             transform="matrix(0.04667548,0,0,0.04864066,182.81222,9.5351918)" />
          <circle
             r="1.5152289"
             cy="721.03217"
             cx="351.02802"
             style="fill:#ffffff;fill-opacity:1;stroke:#000000;stroke-width:8;stroke-linecap:round;stroke-linejoin:round;stroke-miterlimit:4;stroke-dasharray:none;stroke-opacity:1;"
             id="path3924-3-4-9"
             transform="matrix(0.04667548,0,0,0.04864066,178.87881,10.89459)" />
          <circle
             r="1.5152289"
             cy="721.03217"
             cx="351.02802"
             style="fill:#ffffff;fill-opacity:1;stroke:#000000;stroke-width:8;stroke-linecap:round;stroke-linejoin:round;stroke-miterlimit:4;stroke-dasharray:none;stroke-opacity:1;"
             id="path3924-6-0-3"
             transform="matrix(0.04667548,0,0,0.04864066,178.62849,9.5043239)" />
          <circle
             r="1.5152289"
             cy="721.03217"
             cx="351.02802"
             style="fill:#ffffff;fill-opacity:1;stroke:#000000;stroke-width:8;stroke-linecap:round;stroke-linejoin:round;stroke-miterlimit:4;stroke-dasharray:none;stroke-opacity:1;"
             id="path3924-5-7-2"
             transform="matrix(0.04667548,0,0,0.04864066,182.80226,10.834396)" />
          <path
             style="fill:#ffffff;fill-opacity:1;stroke:#000000;stroke-width:0.311478;stroke-miterlimit:4;stroke-dasharray:none;stroke-opacity:1;"
             d="m 183.70223,23.664808 c 3.01938,0.06346 0.7473,-0.01825 3.70025,0.0503 l 1.64818,4.258132 c -1.49286,0.380395 -1.28735,0.306516 -2.72604,0.749007 -1.19602,-1.630053 -2.04785,-3.319728 -2.62239,-5.057435 z"
             id="rect3919-5-56-2"
             inkscape:connector-curvature="0"
             sodipodi:nodetypes="ccccc" />
          <circle
             r="1.5152289"
             cy="721.03217"
             cx="351.02802"
             style="fill:#ffffff;fill-opacity:1;stroke:#000000;stroke-width:8;stroke-linecap:round;stroke-linejoin:round;stroke-miterlimit:4;stroke-dasharray:none;stroke-opacity:1;"
             id="path3924-1-3-7"
             transform="matrix(0.03481747,-0.01068986,0.017557,0.03814846,162.20483,0.53623961)" />
          <circle
             r="1.5152289"
             cy="721.03217"
             cx="351.02802"
             style="fill:#ffffff;fill-opacity:1;stroke:#000000;stroke-width:8;stroke-linecap:round;stroke-linejoin:round;stroke-miterlimit:4;stroke-dasharray:none;stroke-opacity:1;"
             id="path3924-3-8-2-7"
             transform="matrix(0.03481747,-0.01068986,0.017557,0.03814846,163.54865,3.8388178)" />
          <path
             style="fill:#ffffff;fill-opacity:1;stroke:#000000;stroke-width:0.287384;stroke-miterlimit:4;stroke-dasharray:none;stroke-opacity:1;"
             d="m 205.58896,36.019207 c -1.4063,-0.888362 -2.64615,-1.561433 -2.53278,-1.948654 2.51606,-1.21716 5.04001,-2.457456 7.07116,-5.27508 0.63918,0.368202 2.29508,0.942675 3.01393,1.19057 -2.02767,2.138551 -4.89728,4.657652 -7.55231,6.033164 z"
             id="rect3919-5-8-2-7"
             inkscape:connector-curvature="0"
             sodipodi:nodetypes="ccccc" />
          <circle
             r="1.5152289"
             cy="721.03217"
             cx="351.02802"
             style="fill:#ffffff;fill-opacity:1;stroke:#000000;stroke-width:8;stroke-linecap:round;stroke-linejoin:round;stroke-miterlimit:4;stroke-dasharray:none;stroke-opacity:1;"
             id="path3924-1-2-2-3"
             transform="matrix(-0.02681164,-0.02753309,0.0278236,-0.01955848,193.22327,57.996518)" />
          <circle
             r="1.5152289"
             cy="721.03217"
             cx="351.02802"
             style="fill:#ffffff;fill-opacity:1;stroke:#000000;stroke-width:8;stroke-linecap:round;stroke-linejoin:round;stroke-miterlimit:4;stroke-dasharray:none;stroke-opacity:1;"
             id="path3924-3-8-3-74-6"
             transform="matrix(-0.02681164,-0.02753309,0.0278236,-0.01955848,199.64886,53.214858)" />
          <circle
             r="1.5152289"
             cy="721.03217"
             cx="351.02802"
             style="fill:#ffffff;fill-opacity:1;stroke:#000000;stroke-width:8;stroke-linecap:round;stroke-linejoin:round;stroke-miterlimit:4;stroke-dasharray:none;stroke-opacity:1;"
             id="path3924-1-2-1-6-3"
             transform="matrix(-0.02681164,-0.02753309,0.0278236,-0.01955848,195.20786,56.908049)" />
          <circle
             r="1.5152289"
             cy="721.03217"
             cx="351.02802"
             style="fill:#ffffff;fill-opacity:1;stroke:#000000;stroke-width:8;stroke-linecap:round;stroke-linejoin:round;stroke-miterlimit:4;stroke-dasharray:none;stroke-opacity:1;"
             id="path3924-1-2-7-2-1"
             transform="matrix(-0.02681164,-0.02753309,0.0278236,-0.01955848,197.75393,55.140381)" />
          <circle
             r="1.5152289"
             cy="721.03217"
             cx="351.02802"
             style="fill:#ffffff;fill-opacity:1;stroke:#000000;stroke-width:8;stroke-linecap:round;stroke-linejoin:round;stroke-miterlimit:4;stroke-dasharray:none;stroke-opacity:1;"
             id="path3924-3-8-3-4-7"
             transform="matrix(-0.02681164,-0.02753309,0.0278236,-0.01955848,195.76243,48.56742)" />
          <circle
             r="1.5152289"
             cy="721.03217"
             cx="351.02802"
             transform="matrix(-0.02681164,-0.02753309,0.0278236,-0.01955848,199.59591,50.314693)"
             id="path3924-3-8-3-6-7"
             style="fill:#ffffff;fill-opacity:1;stroke:#000000;stroke-width:8;stroke-linecap:round;stroke-linejoin:round;stroke-miterlimit:4;stroke-dasharray:none;stroke-opacity:1;" />
          <circle
             r="1.5152289"
             cy="721.03217"
             cx="351.02802"
             transform="matrix(-0.02681164,-0.02753309,0.0278236,-0.01955848,193.5248,52.893466)"
             id="path3924-3-8-3-45-2"
             style="fill:#ffffff;fill-opacity:1;stroke:#000000;stroke-width:8;stroke-linecap:round;stroke-linejoin:round;stroke-miterlimit:4;stroke-dasharray:none;stroke-opacity:1;" />
          <circle
             r="1.5152289"
             cy="721.03217"
             cx="351.02802"
             transform="matrix(-0.02681164,-0.02753309,0.0278236,-0.01955848,190.48444,55.685053)"
             id="path3924-3-8-3-61-6"
             style="fill:#ffffff;fill-opacity:1;stroke:#000000;stroke-width:8;stroke-linecap:round;stroke-linejoin:round;stroke-miterlimit:4;stroke-dasharray:none;stroke-opacity:1;" />
          <circle
             r="1.5152289"
             cy="721.03217"
             cx="351.02802"
             transform="matrix(-0.02681164,-0.02753309,0.0278236,-0.01955848,185.94224,58.100595)"
             id="path3924-3-8-3-5-2"
             style="fill:#ffffff;fill-opacity:1;stroke:#000000;stroke-width:8;stroke-linecap:round;stroke-linejoin:round;stroke-miterlimit:4;stroke-dasharray:none;stroke-opacity:1;" />
          <circle
             r="1.5152289"
             cy="721.03217"
             cx="351.02802"
             transform="matrix(-0.02681164,-0.02753309,0.0278236,-0.01955848,183.17414,42.110441)"
             id="path3924-3-8-3-1-5"
             style="fill:#ffffff;fill-opacity:1;stroke:#000000;stroke-width:8;stroke-linecap:round;stroke-linejoin:round;stroke-miterlimit:4;stroke-dasharray:none;stroke-opacity:1;" />
          <circle
             r="1.5152289"
             cy="721.03217"
             cx="351.02802"
             transform="matrix(-0.02681164,-0.02753309,0.0278236,-0.01955848,179.39246,41.883762)"
             id="path3924-3-8-3-7-3"
             style="fill:#ffffff;fill-opacity:1;stroke:#000000;stroke-width:8;stroke-linecap:round;stroke-linejoin:round;stroke-miterlimit:4;stroke-dasharray:none;stroke-opacity:1;" />
          <circle
             r="1.5152289"
             cy="721.03217"
             cx="351.02802"
             transform="matrix(-0.02681164,-0.02753309,0.0278236,-0.01955848,186.23056,53.979505)"
             id="path3924-3-8-3-2-6"
             style="fill:#ffffff;fill-opacity:1;stroke:#000000;stroke-width:8;stroke-linecap:round;stroke-linejoin:round;stroke-miterlimit:4;stroke-dasharray:none;stroke-opacity:1;" />
          <circle
             r="1.5152289"
             cy="721.03217"
             cx="351.02802"
             transform="matrix(-0.02681164,-0.02753309,0.0278236,-0.01955848,183.53677,47.895982)"
             id="path3924-3-8-3-3-62"
             style="fill:#ffffff;fill-opacity:1;stroke:#000000;stroke-width:8;stroke-linecap:round;stroke-linejoin:round;stroke-miterlimit:4;stroke-dasharray:none;stroke-opacity:1;" />
          <circle
             r="1.5152289"
             cy="721.03217"
             cx="351.02802"
             transform="matrix(-0.02681164,-0.02753309,0.0278236,-0.01955848,189.44238,41.636464)"
             id="path3924-3-8-3-0-7"
             style="fill:#ffffff;fill-opacity:1;stroke:#000000;stroke-width:8;stroke-linecap:round;stroke-linejoin:round;stroke-miterlimit:4;stroke-dasharray:none;stroke-opacity:1;" />
          <circle
             r="1.5152289"
             cy="721.03217"
             cx="351.02802"
             transform="matrix(-0.02681164,-0.02753309,0.0278236,-0.01955848,193.43127,42.493058)"
             id="path3924-3-8-3-52-4"
             style="fill:#ffffff;fill-opacity:1;stroke:#000000;stroke-width:8;stroke-linecap:round;stroke-linejoin:round;stroke-miterlimit:4;stroke-dasharray:none;stroke-opacity:1;" />
          <circle
             r="1.5152289"
             cy="721.03217"
             cx="351.02802"
             transform="matrix(-0.02681164,-0.02753309,0.0278236,-0.01955848,189.02795,45.208264)"
             id="path3924-3-8-3-25-8"
             style="fill:#ffffff;fill-opacity:1;stroke:#000000;stroke-width:8;stroke-linecap:round;stroke-linejoin:round;stroke-miterlimit:4;stroke-dasharray:none;stroke-opacity:1;" />
          <circle
             r="1.5152289"
             cy="721.03217"
             cx="351.02802"
             transform="matrix(-0.02681164,-0.02753309,0.0278236,-0.01955848,187.18893,49.422733)"
             id="path3924-3-8-3-57-7"
             style="fill:#ffffff;fill-opacity:1;stroke:#000000;stroke-width:8;stroke-linecap:round;stroke-linejoin:round;stroke-miterlimit:4;stroke-dasharray:none;stroke-opacity:1;" />
        </g>
        <path
           inkscape:connector-curvature="0"
           id="path2995-36-5-2"
           d="m 201.89731,52.152492 c 0.008,0.298202 -0.3094,0.546531 -0.70762,0.55466 -0.39822,0.0081 -0.72704,-0.227021 -0.73443,-0.525223 -0.008,-0.298201 0.3094,-0.546531 0.70761,-0.55466 0.39822,-0.0081 0.72702,0.227022 0.73444,0.525223 z"
           style="fill:#000000;fill-opacity:1;stroke-width:7.63228;stroke-linecap:round;stroke-linejoin:round;stroke-miterlimit:4.64615;"
           transform="matrix(-1,0,0,1,402.68417,-0.88388348)" />
      </g>
    </g>
  </g>
</svg>
