<?xml version="1.0" encoding="UTF-8" standalone="no"?>
<!-- Created with Inkscape (http://www.inkscape.org/) -->

<svg
   xmlns:dc="http://purl.org/dc/elements/1.1/"
   xmlns:cc="http://creativecommons.org/ns#"
   xmlns:rdf="http://www.w3.org/1999/02/22-rdf-syntax-ns#"
   xmlns:svg="http://www.w3.org/2000/svg"
   xmlns="http://www.w3.org/2000/svg"
   xmlns:sodipodi="http://sodipodi.sourceforge.net/DTD/sodipodi-0.dtd"
   xmlns:inkscape="http://www.inkscape.org/namespaces/inkscape"
   width="210mm"
   height="297mm"
   viewBox="0 0 210 297"
   version="1.1"
   id="svg4221"
   inkscape:version="0.92.3 (d244b95, 2018-08-02)"
   sodipodi:docname="leekwars_white.svg">
  <defs
     id="defs4215" />
  <sodipodi:namedview
     id="base"
     pagecolor="#ffffff"
     bordercolor="#666666"
     borderopacity="1.0"
     inkscape:pageopacity="0.0"
     inkscape:pageshadow="2"
     inkscape:zoom="0.98994949"
     inkscape:cx="584.06313"
     inkscape:cy="436.45636"
     inkscape:document-units="mm"
     inkscape:current-layer="g11534"
     showgrid="false"
     inkscape:window-width="1853"
     inkscape:window-height="1025"
     inkscape:window-x="67"
     inkscape:window-y="27"
     inkscape:window-maximized="1" />
  <metadata
     id="metadata4218">
    <rdf:RDF>
      <cc:Work
         rdf:about="">
        <dc:format>image/svg+xml</dc:format>
        <dc:type
           rdf:resource="http://purl.org/dc/dcmitype/StillImage" />
        <dc:title></dc:title>
      </cc:Work>
    </rdf:RDF>
  </metadata>
  <g
     inkscape:label="Calque 1"
     inkscape:groupmode="layer"
     id="layer1">
    <g
       id="g11534"
       style="filter:url(#filter11972)"
       inkscape:export-filename="/home/pierre/sites/leekwars/R/texture/leek/leek2.png"
       inkscape:export-xdpi="400"
       inkscape:export-ydpi="400"
       transform="matrix(4.5825189,0,0,4.5825189,-97.577809,-39.725211)">
      <rect
         style="fill:#5fad1b;fill-opacity:1;stroke:#f6ffff;stroke-width:0.40479919;stroke-miterlimit:4.64615393;stroke-dasharray:none;stroke-opacity:1"
         id="rect5101"
         width="40.416767"
         height="40.237953"
         x="23.298431"
         y="17.181843"
         inkscape:export-xdpi="246"
         inkscape:export-ydpi="246" />
      <g
         id="g5099"
         inkscape:export-xdpi="246.37"
         inkscape:export-ydpi="246.37"
         style="stroke:#5fad1b;stroke-opacity:1;fill:#ffffff;fill-opacity:1;stroke-width:0.4545535;stroke-miterlimit:4;stroke-dasharray:none">
        <path
           style="fill:#ffffff;fill-opacity:1;stroke:#5fad1b;stroke-width:0.4545535;stroke-linecap:butt;stroke-linejoin:miter;stroke-miterlimit:4;stroke-dasharray:none;stroke-opacity:1"
           d="m 41.040393,28.165601 0.450137,-0.916096 3.600594,1.266774 c -2.449378,5.088384 -1.765103,8.563464 -0.557663,12.271646 l -2.667784,0.686396 -2.327523,-9.15096 z"
           id="path3807-4-9-7"
           inkscape:connector-curvature="0"
           sodipodi:nodetypes="ccccccc" />
        <path
           style="fill:#ffffff;fill-opacity:1;stroke:#5fad1b;stroke-width:0.4545535;stroke-linecap:butt;stroke-linejoin:miter;stroke-miterlimit:4;stroke-dasharray:none;stroke-opacity:1"
           d="m 48.721426,30.159269 0.175977,-0.837448 -3.473162,-1.190087 c -1.020889,4.625057 -4.10047,6.705023 -7.396696,8.517153 l 1.484665,3.263973 7.949289,-6.234377 z"
           id="path3807-4-9-1"
           inkscape:connector-curvature="0"
           sodipodi:nodetypes="ccccccc" />
        <path
           style="fill:#ffffff;fill-opacity:1;stroke:#5fad1b;stroke-width:0.4545535;stroke-linecap:butt;stroke-linejoin:miter;stroke-miterlimit:4;stroke-dasharray:none;stroke-opacity:1"
           d="m 35.840916,28.729579 0.33299,-0.913068 4.763384,0.581071 c -1.782604,5.067389 0.435211,8.668473 3.074008,12.115247 l -3.316325,0.875799 -5.65376,-8.559497 z"
           id="path3807-5"
           inkscape:connector-curvature="0"
           sodipodi:nodetypes="ccccccc" />
        <path
           style="fill:#ffffff;fill-opacity:1;stroke:#5fad1b;stroke-width:0.4545535;stroke-linecap:butt;stroke-linejoin:miter;stroke-miterlimit:4;stroke-dasharray:none;stroke-opacity:1"
           d="m 52.492632,32.274312 -3.792018,-1.988034 c -1.773502,4.51019 -6.016738,6.759777 -9.767787,8.224493 l 2.422082,3.005335 c 4.248971,-2.575996 7.45897,-5.190183 11.137723,-9.241794 z"
           id="path3807-4-8"
           inkscape:connector-curvature="0"
           sodipodi:nodetypes="ccccc" />
        <path
           style="fill:#ffffff;fill-opacity:1;stroke:#5fad1b;stroke-width:0.4545535;stroke-linecap:butt;stroke-linejoin:miter;stroke-miterlimit:4;stroke-dasharray:none;stroke-opacity:1"
           d="M 39.505384,43.814146 C 36.821012,40.690942 33.530376,35.961989 32.84378,29.375882 l 4.827091,0.675277 c -0.41948,5.563631 2.359516,8.901801 5.144632,12.613132 -1.147842,0.215438 1.28013,18.146451 -3.310119,1.149855 z"
           id="path3805-5"
           inkscape:connector-curvature="0"
           sodipodi:nodetypes="ccccc" />
        <path
           style="fill:#ffffff;fill-opacity:1;stroke:#5fad1b;stroke-width:0.4545535;stroke-linecap:butt;stroke-linejoin:miter;stroke-miterlimit:4;stroke-dasharray:none;stroke-opacity:1"
           d="m 39.656923,42.836725 c 0.246722,-1.70854 4.486525,-3.265195 6.268673,-4.461543 1.782147,-1.196346 5.975768,-5.476832 6.022806,-5.455808 0.04704,0.02102 2.617229,1.774003 3.015775,2.130218 0.398546,0.356215 -4.586808,4.465865 -6.574535,5.75378 -1.987727,1.287912 -4.254501,2.010531 -4.706279,3.002674 -0.451776,0.992143 -0.243301,1.041141 -0.364187,1.842447 -0.120888,0.801304 -0.508774,1.09821 -0.508774,1.09821 l -2.847888,-0.313061 c 0.583304,0.61026 -0.51335,-1.891253 -0.305591,-3.596917 z"
           id="path3769-2"
           inkscape:connector-curvature="0"
           sodipodi:nodetypes="czzzzzzccc" />
        <path
           style="fill:#ffffff;fill-opacity:1;stroke:#5fad1b;stroke-width:0.4545535;stroke-linecap:butt;stroke-linejoin:miter;stroke-miterlimit:4;stroke-dasharray:none;stroke-opacity:1"
           d="m 43.781612,52.082218 c -0.08449,-2.999716 -0.183638,-7.885151 -0.183638,-7.885151 l -0.802966,1.399197 -0.566552,-1.163679 -0.582225,1.355899 -0.602167,-0.878364 -0.539164,1.192976 c 0,0 -0.618159,-0.88922 -0.845059,-1.907235 -0.40902,-1.835116 -0.131908,5.039873 -0.02573,8.223892 0.0098,1.465431 4.155405,1.610527 4.147503,-0.337535 z"
           id="path2993-8"
           inkscape:connector-curvature="0"
           sodipodi:nodetypes="cccccccscc" />
      </g>
    </g>
  </g>
</svg>
